# xmcd
#
# Track frame offsets: 
#        150
#        14739
#        50290
#        66078
#        74029
#        82712
#        99138
#        110172
#        126748
#        140624
#        174375
#        186713
#        201144
#        203545
#        219396
#        227650
#        243651
#        261402
#        275953
#
# Disc length: 3920 seconds
#
# Revision: 3
# Processed by: cddbd v1.5.2PL0 Copyright (c) Steve Scherf et al.
# Submitted via: ExactAudioCopy v0.99pb4
#
DISCID=2f0f4e13
DTITLE=Reverend Gary Davis - Demons And Angels CD 01
DYEAR=2000
DGENRE=Blues
TTITLE0=Buck dance
TTITLE1=Soldier's march
TTITLE2=Baby, what you going to do
TTITLE3=Twelve sticks (the dozens)
TTITLE4=Save up your money, John D. Rockerfeller put the panoc on
TTITLE5=I am the light of this world
TTITLE6=Nobody cares for me
TTITLE7=Slippin' 'til my gal comes in partner
TTITLE8=Blues
TTITLE9=Crucifixion
TTITLE10=Rag blues in C
TTITLE11=Blues in E
TTITLE12=Square dance verses
TTITLE13=Don't know where to go
TTITLE14=He's my King
TTITLE15=I'm throwin' up my hands (Ain't gonna work no more) (aka Moun
TTITLE15=tain Jack blues)
TTITLE16=Cross and evil woman blues
TTITLE17=Keep your lamp trimmed and burning
TTITLE18=I'm so tired of being all alone
EXTD=
EXTT0=
EXTT1=
EXTT2=
EXTT3=
EXTT4=
EXTT5=
EXTT6=
EXTT7=
EXTT8=
EXTT9=
EXTT10=
EXTT11=
EXTT12=
EXTT13=
EXTT14=
EXTT15=
EXTT16=
EXTT17=
EXTT18=
PLAYORDER=
